<?xml version="1.0" standalone="no"?>
<!DOCTYPE svg PUBLIC "-//W3C//DTD SVG 20010904//EN"
 "http://www.w3.org/TR/2001/REC-SVG-20010904/DTD/svg10.dtd">
<svg version="1.0" xmlns="http://www.w3.org/2000/svg"
 width="128.000000pt" height="128.000000pt" viewBox="0 0 128.000000 128.000000"
 preserveAspectRatio="xMidYMid meet">

<g transform="translate(0.000000,128.000000) scale(0.100000,-0.100000)"
fill="#000000" stroke="none">
<path d="M505 1254 c-103 -23 -194 -74 -268 -154 l-63 -67 -2 -84 -2 -84 37
65 c81 138 222 251 355 286 41 10 91 15 146 12 45 -1 82 -2 82 -1 0 1 -24 8
-52 16 -85 24 -157 27 -233 11z"/>
<path d="M925 1026 c-110 -70 -145 -105 -177 -173 -15 -35 -41 -93 -58 -129
l-30 -66 -64 36 c-76 43 -86 44 -86 12 0 -33 82 -239 91 -229 4 5 49 98 99
208 51 110 102 211 114 224 11 12 56 41 98 62 l77 39 26 -34 25 -33 0 -361 0
-362 65 0 65 0 0 303 1 302 24 -27 c13 -16 27 -28 30 -28 3 0 5 16 5 35 0 30
-13 49 -107 150 -59 63 -112 115 -118 115 -6 0 -42 -20 -80 -44z"/>
<path d="M784 450 c-62 -129 -80 -176 -76 -199 l4 -31 84 0 84 0 0 200 c0 110
-3 200 -7 200 -5 -1 -44 -77 -89 -170z"/>
<path d="M480 322 l0 -102 49 0 50 0 -45 97 c-25 54 -48 100 -50 102 -2 2 -4
-41 -4 -97z"/>
<path d="M337 272 c3 -84 3 -85 40 -118 88 -79 272 -142 372 -128 122 17 182
36 255 84 90 59 105 78 34 45 -78 -36 -149 -48 -262 -43 -82 4 -115 10 -174
34 -78 31 -175 102 -233 169 l-35 42 3 -85z"/>
<path d="M172 260 c-1 -32 7 -49 38 -87 42 -50 107 -106 152 -129 17 -9 2 11
-41 54 -37 37 -85 98 -105 135 -21 37 -39 67 -41 67 -1 0 -3 -18 -3 -40z"/>
</g>
</svg>
